<svg width="20" height="20" viewBox="0 0 20 20" fill="none" xmlns="http://www.w3.org/2000/svg">
<path opacity="0.4" d="M13.492 1.667H6.509C5.85794 1.60607 5.20146 1.68947 4.58632 1.91126C3.97118 2.13305 3.41252 2.48777 2.95015 2.95015C2.48777 3.41253 2.13305 3.97118 1.91126 4.58632C1.68947 5.20146 1.60607 5.85794 1.667 6.509V13.484C1.60536 14.1356 1.6882 14.7927 1.90962 15.4086C2.13104 16.0245 2.48559 16.5839 2.948 17.0471C3.4104 17.5103 3.96928 17.8658 4.5848 18.0882C5.20032 18.3106 5.85732 18.3946 6.509 18.334H13.484C14.1351 18.3949 14.7915 18.3115 15.4067 18.0897C16.0218 17.8679 16.5805 17.5132 17.0428 17.0508C17.5052 16.5885 17.8599 16.0298 18.0817 15.4147C18.3035 14.7995 18.3869 14.1431 18.326 13.492V6.509C18.3886 5.85828 18.3066 5.20177 18.0859 4.58643C17.8652 3.97109 17.5113 3.41212 17.0494 2.94949C16.5875 2.48686 16.0291 2.132 15.4142 1.91029C14.7992 1.68858 14.1428 1.60551 13.492 1.667V1.667Z" fill="#AE644C"/>
<path d="M14.166 6.875H5.83301C5.66765 6.87369 5.50944 6.80742 5.39251 6.6905C5.27558 6.57357 5.20932 6.41536 5.20801 6.25C5.20932 6.08464 5.27558 5.92643 5.39251 5.8095C5.50944 5.69257 5.66765 5.62631 5.83301 5.625H14.166C14.3314 5.62631 14.4896 5.69257 14.6065 5.8095C14.7234 5.92643 14.7897 6.08464 14.791 6.25C14.7897 6.41536 14.7234 6.57357 14.6065 6.6905C14.4896 6.80742 14.3314 6.87369 14.166 6.875V6.875Z" fill="#AE644C"/>
<path d="M14.166 10.625H5.83301C5.66765 10.6237 5.50944 10.5574 5.39251 10.4405C5.27558 10.3236 5.20932 10.1654 5.20801 10C5.20932 9.83464 5.27558 9.67643 5.39251 9.5595C5.50944 9.44257 5.66765 9.37631 5.83301 9.375H14.166C14.3314 9.37631 14.4896 9.44257 14.6065 9.5595C14.7234 9.67643 14.7897 9.83464 14.791 10C14.7897 10.1654 14.7234 10.3236 14.6065 10.4405C14.4896 10.5574 14.3314 10.6237 14.166 10.625V10.625Z" fill="#AE644C"/>
<path d="M14.166 14.375H5.83301C5.66765 14.3737 5.50944 14.3074 5.39251 14.1905C5.27558 14.0736 5.20932 13.9154 5.20801 13.75C5.20932 13.5846 5.27558 13.4264 5.39251 13.3095C5.50944 13.1926 5.66765 13.1263 5.83301 13.125H14.166C14.3314 13.1263 14.4896 13.1926 14.6065 13.3095C14.7234 13.4264 14.7897 13.5846 14.791 13.75C14.7897 13.9154 14.7234 14.0736 14.6065 14.1905C14.4896 14.3074 14.3314 14.3737 14.166 14.375V14.375Z" fill="#AE644C"/>
</svg>
