<svg xmlns="http://www.w3.org/2000/svg" width="34.295" height="27.333" viewBox="0 0 34.295 27.333">
  <g id="svgexport-6_13_" data-name="svgexport-6 (13)" transform="translate(34.295 27.333) rotate(180)">
    <g id="Quote_1_" transform="translate(0 0)">
      <path id="Path_1276" data-name="Path 1276" d="M15.566,2.1h1.2V0h-1.2C7.386,0,.659,5.569.046,12.615Q0,13.136,0,13.667V27.333H16.764V12.615H2.448C3.056,6.73,8.708,2.1,15.566,2.1Z" transform="translate(17.531 0)" fill="#00a79f"/>
      <path id="Path_1277" data-name="Path 1277" d="M15.566,2.1h1.2V0h-1.2C7.386,0,.659,5.569.046,12.615Q0,13.136,0,13.667V27.333H16.764V12.615H2.448C3.056,6.73,8.707,2.1,15.566,2.1Z" transform="translate(0 0)" fill="#00a79f"/>
    </g>
  </g>
</svg>
